<svg width="36" height="36" viewBox="0 0 36 36" fill="none" xmlns="http://www.w3.org/2000/svg">
<path d="M24.075 18C24.075 14.625 21.375 11.925 18 11.925C14.625 11.925 11.925 14.625 11.925 18C11.925 21.375 14.625 24.075 18 24.075C21.375 24.075 24.075 21.375 24.075 18ZM27.225 18C27.225 23.175 23.175 27.225 18 27.225C12.825 27.225 8.775 23.175 8.775 18C8.775 12.825 12.825 8.775 18 8.775C23.175 8.775 27.225 12.825 27.225 18ZM29.7 8.325C29.7 9.675 28.8 10.575 27.45 10.575C26.1 10.575 25.2 9.675 25.2 8.325C25.2 6.975 26.1 6.075 27.45 6.075C28.8 6.075 29.7 7.2 29.7 8.325ZM18 3.15C15.3 3.15 9.675 2.925 7.425 3.825C5.85 4.5 4.5 5.85 4.05 7.425C3.15 9.675 3.375 15.3 3.375 18C3.375 20.7 3.15 26.325 4.05 28.575C4.5 30.15 5.85 31.5 7.425 31.95C9.675 32.85 15.525 32.625 18 32.625C20.475 32.625 26.325 32.85 28.575 31.95C30.15 31.275 31.275 30.15 31.95 28.575C32.85 26.1 32.625 20.475 32.625 18C32.625 15.525 32.85 9.675 31.95 7.425C31.5 5.85 30.15 4.5 28.575 4.05C26.325 2.925 20.7 3.15 18 3.15ZM36 18V25.425C36 28.125 35.1 30.825 33.075 33.075C31.05 35.1 28.35 36 25.425 36H10.575C7.875 36 5.175 35.1 2.925 33.075C1.125 31.05 0 28.35 0 25.425V18V10.575C0 7.65 1.125 4.95 2.925 2.925C5.175 1.125 7.875 0 10.575 0H25.425C28.125 0 30.825 0.9 33.075 2.925C34.875 4.95 36 7.65 36 10.575V18Z" fill="#545454"/>
</svg>
