<svg width="68" height="48" viewBox="0 0 68 48" fill="none" xmlns="http://www.w3.org/2000/svg">
<path fill-rule="evenodd" clip-rule="evenodd" d="M0 4.8V43.2C0 45.84 2.18571 48 4.85714 48H63.1429C65.8143 48 68 45.84 68 43.2V4.8C68 2.16 65.8143 0 63.1429 0H4.85714C2.18571 0 0 2.16 0 4.8ZM63.1429 4.8L34 28.8L4.85714 4.8H63.1429ZM4.85714 12L24.2857 26.4L4.85714 40.8V12ZM9.71429 43.2L26.7143 28.8L34 36L41.2857 28.8L58.2857 43.2H9.71429ZM63.1429 40.8L43.7143 26.4L63.1429 12V40.8Z" fill="#05E451"/>
</svg>
