<svg width="68" height="68" viewBox="0 0 68 68" fill="none" xmlns="http://www.w3.org/2000/svg">
<path fill-rule="evenodd" clip-rule="evenodd" d="M3.86844 22.6667L3.77778 22.406C1.73778 16.5618 0 8.57555 0 3.77778C0 1.7 1.7 0 3.77778 0H15.1111C17.115 0 19.0368 0.796029 20.4537 2.21297C21.8706 3.62991 22.6667 5.5517 22.6667 7.55556V15.1111C22.6667 17.115 21.8706 19.0368 20.4537 20.4537C19.0368 21.8706 17.115 22.6667 15.1111 22.6667H11.9491C14.9992 30.1806 19.5252 37.0065 25.2593 42.7407C30.9935 48.4748 37.8194 53.0008 45.3333 56.0509V52.8889C45.3333 50.885 46.1294 48.9632 47.5463 47.5463C48.9632 46.1294 50.885 45.3333 52.8889 45.3333H60.4444C62.4483 45.3333 64.3701 46.1294 65.787 47.5463C67.204 48.9632 68 50.885 68 52.8889V64.2222C68 65.9222 65.9222 68 64.2222 68C57.7056 68 51.2267 66.2773 45.3333 64.2222C26.0138 57.3013 10.6987 41.9862 3.86844 22.6667Z" fill="#05E451"/>
</svg>
