<svg width="44" height="44" viewBox="0 0 44 44" fill="none" xmlns="http://www.w3.org/2000/svg">
<path fill-rule="evenodd" clip-rule="evenodd" d="M2.50311 14.6667L2.44444 14.498C1.12444 10.7164 0 5.54889 0 2.44444C0 1.1 1.1 0 2.44444 0H9.77778C11.0744 0 12.3179 0.515078 13.2347 1.43192C14.1516 2.34877 14.6667 3.59227 14.6667 4.88889V9.77778C14.6667 11.0744 14.1516 12.3179 13.2347 13.2347C12.3179 14.1516 11.0744 14.6667 9.77778 14.6667H7.73178C9.70535 19.5286 12.6339 23.9454 16.3443 27.6557C20.0546 31.3661 24.4714 34.2946 29.3333 36.2682V34.2222C29.3333 32.9256 29.8484 31.6821 30.7653 30.7653C31.6821 29.8484 32.9256 29.3333 34.2222 29.3333H39.1111C40.4077 29.3333 41.6512 29.8484 42.5681 30.7653C43.4849 31.6821 44 32.9256 44 34.2222V41.5556C44 42.6556 42.6556 44 41.5556 44C37.3389 44 33.1467 42.8853 29.3333 41.5556C16.8324 37.0773 6.92267 27.1676 2.50311 14.6667Z" fill="#545454"/>
</svg>
