<svg width="46" height="37" viewBox="0 0 46 37" fill="none" xmlns="http://www.w3.org/2000/svg">
<path d="M46 4.17991C44.2671 4.95397 42.5342 5.41841 40.4863 5.72803C42.3767 4.48954 43.9521 2.78661 44.7397 0.619246C42.8493 1.70293 40.8014 2.47699 38.7534 2.94142C37.0205 1.08368 34.5 0 31.8219 0C26.6233 0 22.2123 4.17992 22.2123 9.44351C22.2123 10.2176 22.3699 10.8368 22.5274 11.6109C14.6507 11.3013 7.56164 7.43096 2.83562 1.85774C2.04795 2.94142 1.57534 4.48954 1.57534 6.19247C1.57534 9.44351 3.30822 12.3849 5.82877 13.9331C4.25342 13.9331 2.83562 13.4686 1.57534 12.6946V12.8494C1.57534 17.3389 4.88356 21.2092 9.29452 21.9833C8.50685 22.1381 7.71918 22.2929 6.77397 22.2929C6.14384 22.2929 5.5137 22.2929 5.0411 22.1381C6.30137 25.8536 9.76712 28.6402 14.0205 28.6402C10.7123 31.1172 6.61644 32.6653 2.20548 32.6653C1.41781 32.6653 0.630137 32.6653 0 32.5105C3.78082 35.4519 8.82192 37 14.1781 37C31.6644 37 41.274 22.7573 41.274 10.3724V9.13389C43.1644 7.74059 44.7397 6.19247 46 4.17991Z" fill="#545454"/>
</svg>
